<svg width="17" height="17" viewBox="0 0 17 17" fill="none" xmlns="http://www.w3.org/2000/svg">
<path d="M11.6758 15.2621C8.95404 15.2585 6.34472 14.1757 4.42011 12.2511C2.4955 10.3265 1.41271 7.7172 1.40918 4.99539C1.40918 4.18206 1.73227 3.40204 2.30739 2.82693C2.8825 2.25182 3.66252 1.92873 4.47585 1.92873C4.64807 1.92741 4.82001 1.94304 4.98918 1.97539C5.15272 1.99959 5.31349 2.03979 5.46918 2.09539C5.57868 2.13381 5.67625 2.20015 5.75225 2.28784C5.82825 2.37553 5.88005 2.48155 5.90251 2.59539L6.81585 6.59539C6.84046 6.70397 6.8375 6.81698 6.80722 6.92412C6.77695 7.03125 6.72032 7.1291 6.64251 7.20873C6.55585 7.30206 6.54918 7.30873 5.72918 7.73539C6.38584 9.17596 7.53798 10.3328 8.97585 10.9954C9.40918 10.1687 9.41585 10.1621 9.50918 10.0754C9.58881 9.99759 9.68666 9.94096 9.79379 9.91068C9.90093 9.88041 10.0139 9.87744 10.1225 9.90206L14.1225 10.8154C14.2327 10.841 14.3346 10.8942 14.4186 10.97C14.5025 11.0458 14.5658 11.1417 14.6025 11.2487C14.6588 11.407 14.7012 11.5698 14.7292 11.7354C14.756 11.9029 14.7694 12.0724 14.7692 12.2421C14.7569 13.0519 14.4247 13.824 13.8452 14.3898C13.2656 14.9556 12.4858 15.2692 11.6758 15.2621Z" fill="white"/>
</svg>
