<svg width="17" height="17" viewBox="0 0 17 17" fill="none" xmlns="http://www.w3.org/2000/svg">
<path d="M12.7425 3.26208H3.40918C2.87875 3.26208 2.37004 3.4728 1.99497 3.84787C1.61989 4.22294 1.40918 4.73165 1.40918 5.26208V11.9288C1.40918 12.4592 1.61989 12.9679 1.99497 13.343C2.37004 13.718 2.87875 13.9288 3.40918 13.9288H12.7425C13.2729 13.9288 13.7817 13.718 14.1567 13.343C14.5318 12.9679 14.7425 12.4592 14.7425 11.9288V5.26208C14.7425 4.73165 14.5318 4.22294 14.1567 3.84787C13.7817 3.4728 13.2729 3.26208 12.7425 3.26208ZM12.7425 4.59542L8.40918 7.57542C8.30783 7.63393 8.19287 7.66473 8.07585 7.66473C7.95882 7.66473 7.84386 7.63393 7.74251 7.57542L3.40918 4.59542H12.7425Z" fill="white"/>
</svg>
