<svg width="17" height="18" viewBox="0 0 17 18" fill="none" xmlns="http://www.w3.org/2000/svg">
<path d="M13.8125 11.6719C12.7627 11.6719 11.8376 12.1845 11.2566 12.964L6.23298 10.4106C6.31639 10.1284 6.375 9.83595 6.375 9.52734C6.375 9.10877 6.28855 8.71084 6.1392 8.34483L11.3966 5.20439C11.9817 5.886 12.8417 6.32812 13.8125 6.32812C15.5702 6.32812 17 4.90883 17 3.16406C17 1.41929 15.5702 0 13.8125 0C12.0548 0 10.625 1.41929 10.625 3.16406C10.625 3.56614 10.7084 3.94755 10.8468 4.30165L5.5737 7.4513C4.98911 6.78994 4.14152 6.36328 3.1875 6.36328C1.42981 6.36328 0 7.78257 0 9.52734C0 11.2721 1.42981 12.6914 3.1875 12.6914C4.2546 12.6914 5.19531 12.1637 5.77416 11.3623L10.7812 13.9074C10.689 14.2029 10.625 14.5107 10.625 14.8359C10.625 16.5807 12.0548 18 13.8125 18C15.5702 18 17 16.5807 17 14.8359C17 13.0912 15.5702 11.6719 13.8125 11.6719Z" fill="#031230"/>
</svg>
