<svg width="74" height="24" viewBox="0 0 74 24" fill="none" xmlns="http://www.w3.org/2000/svg">
<g filter="url(#filter0_d)">
<path d="M8.336 11.968C7.54667 11.968 6.76267 11.8453 5.984 11.6C5.20533 11.344 4.544 10.9973 4 10.56L5.632 8.272C5.664 8.32533 5.76533 8.42667 5.936 8.576C6.11733 8.71467 6.35733 8.864 6.656 9.024C6.96533 9.17333 7.30667 9.30667 7.68 9.424C8.064 9.54133 8.464 9.6 8.88 9.6C9.22133 9.6 9.49333 9.55733 9.696 9.472C9.90933 9.38667 10.0587 9.26933 10.144 9.12C10.24 8.96 10.288 8.784 10.288 8.592C10.288 8.34667 10.1813 8.14933 9.968 8C9.76533 7.85067 9.49333 7.71733 9.152 7.6C8.82133 7.48267 8.448 7.35467 8.032 7.216C7.53067 7.03467 7.10933 6.832 6.768 6.608C6.42667 6.384 6.17067 6.12267 6 5.824C5.82933 5.51467 5.744 5.152 5.744 4.736C5.744 4.04267 5.87733 3.42933 6.144 2.896C6.42133 2.352 6.78933 1.89867 7.248 1.536C7.71733 1.16267 8.24 0.88 8.816 0.688C9.40267 0.485333 10.0053 0.384 10.624 0.384C11.136 0.384 11.616 0.448 12.064 0.575999C12.5227 0.704 12.9387 0.864 13.312 1.056C13.6853 1.248 14.0107 1.44 14.288 1.632L12.688 3.808C12.6773 3.75467 12.592 3.67467 12.432 3.568C12.2827 3.45067 12.08 3.328 11.824 3.2C11.5787 3.072 11.3013 2.96 10.992 2.864C10.6827 2.768 10.368 2.72 10.048 2.72C9.74933 2.72 9.49333 2.768 9.28 2.864C9.06667 2.94933 8.90133 3.07733 8.784 3.248C8.67733 3.408 8.624 3.60533 8.624 3.84C8.624 4.04267 8.69867 4.21333 8.848 4.352C9.008 4.48 9.232 4.59733 9.52 4.704C9.808 4.8 10.144 4.91733 10.528 5.056C11.072 5.22667 11.5467 5.42933 11.952 5.664C12.3573 5.888 12.672 6.17067 12.896 6.512C13.1307 6.84267 13.248 7.27467 13.248 7.808C13.248 8.56533 13.104 9.21067 12.816 9.744C12.528 10.2773 12.1493 10.7093 11.68 11.04C11.2107 11.36 10.6827 11.5947 10.096 11.744C9.52 11.8933 8.93333 11.968 8.336 11.968Z" fill="#031230"/>
<path d="M17.564 12C16.9453 12 16.412 11.856 15.964 11.568C15.5267 11.2693 15.1853 10.864 14.94 10.352C14.7053 9.82933 14.588 9.24267 14.588 8.592C14.588 7.87733 14.7107 7.2 14.956 6.56C15.2013 5.92 15.5373 5.36 15.964 4.88C16.3907 4.38933 16.876 4 17.42 3.712C17.9747 3.424 18.556 3.28 19.164 3.28C19.708 3.28 20.172 3.424 20.556 3.712C20.9507 3.98933 21.2173 4.35733 21.356 4.816L21.644 3.488H24.22L23.036 8.96C23.0253 9.024 23.0147 9.08267 23.004 9.136C23.004 9.18933 23.004 9.24267 23.004 9.296C23.004 9.54133 23.1373 9.66933 23.404 9.68L22.956 11.84C22.7213 11.8827 22.5133 11.9147 22.332 11.936C22.1507 11.9573 21.996 11.968 21.868 11.968C21.452 11.968 21.1213 11.888 20.876 11.728C20.6307 11.5573 20.508 11.28 20.508 10.896C20.508 10.8533 20.508 10.8107 20.508 10.768C20.508 10.7253 20.5133 10.6773 20.524 10.624C20.5347 10.5707 20.5453 10.512 20.556 10.448C20.1613 10.9707 19.6973 11.36 19.164 11.616C18.6413 11.872 18.108 12 17.564 12ZM18.716 9.84C18.876 9.84 19.036 9.81333 19.196 9.76C19.3667 9.696 19.532 9.616 19.692 9.52C19.852 9.424 20.0067 9.30133 20.156 9.152C20.3053 9.00267 20.4387 8.84267 20.556 8.672L20.924 6.912C20.892 6.624 20.8067 6.37333 20.668 6.16C20.54 5.94667 20.3747 5.776 20.172 5.648C19.9693 5.52 19.756 5.456 19.532 5.456C19.2333 5.456 18.9507 5.53067 18.684 5.68C18.4173 5.82933 18.1773 6.032 17.964 6.288C17.7613 6.544 17.596 6.83733 17.468 7.168C17.3507 7.488 17.292 7.824 17.292 8.176C17.292 8.496 17.3453 8.784 17.452 9.04C17.5693 9.28533 17.7347 9.48267 17.948 9.632C18.1613 9.77067 18.4173 9.84 18.716 9.84Z" fill="#031230"/>
<path d="M26.5381 6.064H25.5301L25.9461 4.128H26.9541L27.0981 3.44C27.2475 2.736 27.4928 2.128 27.8341 1.616C28.1861 1.104 28.6021 0.709333 29.0821 0.431999C29.5621 0.144 30.0901 0 30.6661 0C30.9968 0 31.3275 0.0426664 31.6581 0.127999C31.9995 0.213333 32.3408 0.335999 32.6821 0.495999L31.8021 2.416C31.6635 2.34133 31.4981 2.28267 31.3061 2.24C31.1141 2.18667 30.9381 2.16 30.7781 2.16C30.5008 2.16 30.2661 2.26133 30.0741 2.464C29.8928 2.656 29.7595 2.94933 29.6741 3.344L29.4981 4.128H31.3381L30.9221 6.064H29.0981L27.1461 15.248H24.5861L26.5381 6.064Z" fill="#031230"/>
<path d="M35.1309 12C34.4055 12 33.7762 11.8507 33.2429 11.552C32.7202 11.2533 32.3149 10.8373 32.0269 10.304C31.7495 9.76 31.6109 9.14133 31.6109 8.448C31.6109 7.73333 31.7495 7.06667 32.0269 6.448C32.3042 5.82933 32.6882 5.28533 33.1789 4.816C33.6695 4.336 34.2402 3.96267 34.8909 3.696C35.5522 3.41867 36.2615 3.28 37.0189 3.28C37.6589 3.28 38.2082 3.376 38.6669 3.568C39.1362 3.74933 39.4935 4.02133 39.7389 4.384C39.9949 4.736 40.1229 5.168 40.1229 5.68C40.1229 6.58667 39.7015 7.28 38.8589 7.76C38.0269 8.22933 36.7842 8.464 35.1309 8.464C34.8109 8.464 34.4589 8.45867 34.0749 8.448C33.7015 8.42667 33.3122 8.39467 32.9069 8.352L33.2269 6.784C33.5682 6.816 33.8935 6.84267 34.2029 6.864C34.5122 6.87467 34.8215 6.88 35.1309 6.88C35.7602 6.88 36.2562 6.848 36.6189 6.784C36.9922 6.70933 37.2589 6.59733 37.4189 6.448C37.5789 6.29867 37.6589 6.11733 37.6589 5.904C37.6589 5.73333 37.6109 5.59467 37.5149 5.488C37.4295 5.37067 37.3069 5.28 37.1469 5.216C36.9975 5.152 36.8162 5.12 36.6029 5.12C36.2509 5.12 35.9255 5.21067 35.6269 5.392C35.3282 5.57333 35.0669 5.824 34.8429 6.144C34.6295 6.464 34.4589 6.832 34.3309 7.248C34.2135 7.65333 34.1549 8.09067 34.1549 8.56C34.1549 8.89067 34.2029 9.17867 34.2989 9.424C34.3949 9.65867 34.5495 9.84 34.7629 9.968C34.9869 10.096 35.2642 10.16 35.5949 10.16C35.9789 10.16 36.3309 10.0693 36.6509 9.888C36.9815 9.70667 37.2482 9.456 37.4509 9.136L39.4669 9.776C39.1789 10.2133 38.8002 10.6027 38.3309 10.944C37.8615 11.2747 37.3495 11.536 36.7949 11.728C36.2509 11.9093 35.6962 12 35.1309 12Z" fill="#031230"/>
<path d="M45.6206 11.936C44.938 11.936 44.33 11.8027 43.7966 11.536C43.2633 11.2694 42.8153 10.9067 42.4526 10.448C42.09 9.98935 41.8126 9.47202 41.6206 8.89602C41.4393 8.32002 41.3486 7.72802 41.3486 7.12002C41.3486 6.48002 41.4553 5.84535 41.6686 5.21602C41.882 4.57602 42.186 3.96802 42.5806 3.39202C42.986 2.81602 43.4606 2.30402 44.0046 1.85602C44.5593 1.40802 45.178 1.05602 45.8606 0.800015C46.554 0.544016 47.29 0.416016 48.0686 0.416016C49.114 0.416016 49.9673 0.645349 50.6286 1.10402C51.29 1.56268 51.722 2.16002 51.9246 2.89602L49.6366 4.28802C49.562 3.88268 49.4126 3.56802 49.1886 3.34402C48.9753 3.12002 48.7246 2.96535 48.4366 2.88002C48.1486 2.79468 47.8553 2.75202 47.5566 2.75202C46.97 2.75202 46.458 2.88002 46.0206 3.13602C45.5833 3.39202 45.2153 3.73335 44.9166 4.16002C44.618 4.57602 44.394 5.02935 44.2446 5.52002C44.0953 6.00002 44.0206 6.46402 44.0206 6.91202C44.0206 7.40268 44.1006 7.85068 44.2606 8.25602C44.4206 8.66135 44.6606 8.98668 44.9806 9.23202C45.3006 9.47735 45.6953 9.60002 46.1646 9.60002C46.4526 9.60002 46.762 9.54668 47.0926 9.44002C47.4233 9.33335 47.738 9.16802 48.0366 8.94402C48.3353 8.70935 48.5913 8.40535 48.8046 8.03202L50.6926 9.29602C50.3513 9.86135 49.8926 10.3413 49.3166 10.736C48.7513 11.1307 48.1433 11.4293 47.4926 11.632C46.842 11.8347 46.218 11.936 45.6206 11.936Z" fill="#014AD8"/>
<path d="M55.0308 12C54.4121 12 53.8788 11.856 53.4308 11.568C52.9934 11.2693 52.6521 10.864 52.4068 10.352C52.1721 9.82935 52.0548 9.24268 52.0548 8.59202C52.0548 7.87735 52.1774 7.20002 52.4228 6.56002C52.6681 5.92002 53.0041 5.36002 53.4308 4.88002C53.8574 4.38935 54.3428 4.00002 54.8868 3.71202C55.4414 3.42402 56.0228 3.28002 56.6308 3.28002C57.1748 3.28002 57.6388 3.42402 58.0228 3.71202C58.4174 3.98935 58.6841 4.35735 58.8228 4.81602L59.1108 3.48802H61.6868L60.5028 8.96002C60.4921 9.02402 60.4814 9.08268 60.4708 9.13602C60.4708 9.18935 60.4708 9.24268 60.4708 9.29602C60.4708 9.54135 60.6041 9.66935 60.8708 9.68002L60.4228 11.84C60.1881 11.8827 59.9801 11.9147 59.7988 11.936C59.6174 11.9573 59.4628 11.968 59.3348 11.968C58.9188 11.968 58.5881 11.888 58.3428 11.728C58.0974 11.5573 57.9748 11.28 57.9748 10.896C57.9748 10.8533 57.9748 10.8107 57.9748 10.768C57.9748 10.7253 57.9801 10.6774 57.9908 10.624C58.0014 10.5707 58.0121 10.512 58.0228 10.448C57.6281 10.9707 57.1641 11.36 56.6308 11.616C56.1081 11.872 55.5748 12 55.0308 12ZM56.1828 9.84002C56.3428 9.84002 56.5028 9.81335 56.6628 9.76002C56.8334 9.69602 56.9988 9.61602 57.1588 9.52002C57.3188 9.42402 57.4734 9.30135 57.6228 9.15202C57.7721 9.00268 57.9054 8.84268 58.0228 8.67202L58.3908 6.91202C58.3588 6.62402 58.2734 6.37335 58.1348 6.16002C58.0068 5.94668 57.8414 5.77602 57.6388 5.64802C57.4361 5.52002 57.2228 5.45602 56.9988 5.45602C56.7001 5.45602 56.4174 5.53068 56.1508 5.68002C55.8841 5.82935 55.6441 6.03202 55.4308 6.28802C55.2281 6.54402 55.0628 6.83735 54.9348 7.16802C54.8174 7.48802 54.7588 7.82402 54.7588 8.17602C54.7588 8.49602 54.8121 8.78402 54.9188 9.04002C55.0361 9.28535 55.2014 9.48268 55.4148 9.63202C55.6281 9.77068 55.8841 9.84002 56.1828 9.84002Z" fill="#014AD8"/>
<path d="M64.1314 3.44002H66.4834L66.1154 5.13602C66.5207 4.57068 66.9687 4.12802 67.4594 3.80802C67.9607 3.48802 68.4514 3.32802 68.9314 3.32802C69.0487 3.32802 69.1287 3.32802 69.1714 3.32802C69.2247 3.32802 69.2674 3.33335 69.2994 3.34402L68.8194 5.63202C68.2434 5.63202 67.6994 5.73335 67.1874 5.93602C66.6754 6.12802 66.2701 6.41602 65.9714 6.80002L64.8994 11.84H62.3394L64.1314 3.44002Z" fill="#014AD8"/>
</g>
<defs>
<filter id="filter0_d" x="0" y="0" width="73.2994" height="23.248" filterUnits="userSpaceOnUse" color-interpolation-filters="sRGB">
<feFlood flood-opacity="0" result="BackgroundImageFix"/>
<feColorMatrix in="SourceAlpha" type="matrix" values="0 0 0 0 0 0 0 0 0 0 0 0 0 0 0 0 0 0 127 0" result="hardAlpha"/>
<feOffset dy="4"/>
<feGaussianBlur stdDeviation="2"/>
<feComposite in2="hardAlpha" operator="out"/>
<feColorMatrix type="matrix" values="0 0 0 0 0 0 0 0 0 0 0 0 0 0 0 0 0 0 0.25 0"/>
<feBlend mode="normal" in2="BackgroundImageFix" result="effect1_dropShadow"/>
<feBlend mode="normal" in="SourceGraphic" in2="effect1_dropShadow" result="shape"/>
</filter>
</defs>
</svg>
