<svg width="66" height="16" viewBox="0 0 66 16" fill="none" xmlns="http://www.w3.org/2000/svg">
<path d="M4.336 11.968C3.54667 11.968 2.76267 11.8453 1.984 11.6C1.20533 11.344 0.544 10.9973 0 10.56L1.632 8.272C1.664 8.32533 1.76533 8.42667 1.936 8.576C2.11733 8.71467 2.35733 8.864 2.656 9.024C2.96533 9.17333 3.30667 9.30667 3.68 9.424C4.064 9.54133 4.464 9.6 4.88 9.6C5.22133 9.6 5.49333 9.55733 5.696 9.472C5.90933 9.38667 6.05867 9.26933 6.144 9.12C6.24 8.96 6.288 8.784 6.288 8.592C6.288 8.34667 6.18133 8.14933 5.968 8C5.76533 7.85067 5.49333 7.71733 5.152 7.6C4.82133 7.48267 4.448 7.35467 4.032 7.216C3.53067 7.03467 3.10933 6.832 2.768 6.608C2.42667 6.384 2.17067 6.12267 2 5.824C1.82933 5.51467 1.744 5.152 1.744 4.736C1.744 4.04267 1.87733 3.42933 2.144 2.896C2.42133 2.352 2.78933 1.89867 3.248 1.536C3.71733 1.16267 4.24 0.88 4.816 0.688C5.40267 0.485333 6.00533 0.384 6.624 0.384C7.136 0.384 7.616 0.448 8.064 0.575999C8.52267 0.704 8.93867 0.864 9.312 1.056C9.68533 1.248 10.0107 1.44 10.288 1.632L8.688 3.808C8.67733 3.75467 8.592 3.67467 8.432 3.568C8.28267 3.45067 8.08 3.328 7.824 3.2C7.57867 3.072 7.30133 2.96 6.992 2.864C6.68267 2.768 6.368 2.72 6.048 2.72C5.74933 2.72 5.49333 2.768 5.28 2.864C5.06667 2.94933 4.90133 3.07733 4.784 3.248C4.67733 3.408 4.624 3.60533 4.624 3.84C4.624 4.04267 4.69867 4.21333 4.848 4.352C5.008 4.48 5.232 4.59733 5.52 4.704C5.808 4.8 6.144 4.91733 6.528 5.056C7.072 5.22667 7.54667 5.42933 7.952 5.664C8.35733 5.888 8.672 6.17067 8.896 6.512C9.13067 6.84267 9.248 7.27467 9.248 7.808C9.248 8.56533 9.104 9.21067 8.816 9.744C8.528 10.2773 8.14933 10.7093 7.68 11.04C7.21067 11.36 6.68267 11.5947 6.096 11.744C5.52 11.8933 4.93333 11.968 4.336 11.968Z" fill="white"/>
<path d="M13.564 12C12.9453 12 12.412 11.856 11.964 11.568C11.5267 11.2693 11.1853 10.864 10.94 10.352C10.7053 9.82933 10.588 9.24267 10.588 8.592C10.588 7.87733 10.7107 7.2 10.956 6.56C11.2013 5.92 11.5373 5.36 11.964 4.88C12.3907 4.38933 12.876 4 13.42 3.712C13.9747 3.424 14.556 3.28 15.164 3.28C15.708 3.28 16.172 3.424 16.556 3.712C16.9507 3.98933 17.2173 4.35733 17.356 4.816L17.644 3.488H20.22L19.036 8.96C19.0253 9.024 19.0147 9.08267 19.004 9.136C19.004 9.18933 19.004 9.24267 19.004 9.296C19.004 9.54133 19.1373 9.66933 19.404 9.68L18.956 11.84C18.7213 11.8827 18.5133 11.9147 18.332 11.936C18.1507 11.9573 17.996 11.968 17.868 11.968C17.452 11.968 17.1213 11.888 16.876 11.728C16.6307 11.5573 16.508 11.28 16.508 10.896C16.508 10.8533 16.508 10.8107 16.508 10.768C16.508 10.7253 16.5133 10.6773 16.524 10.624C16.5347 10.5707 16.5453 10.512 16.556 10.448C16.1613 10.9707 15.6973 11.36 15.164 11.616C14.6413 11.872 14.108 12 13.564 12ZM14.716 9.84C14.876 9.84 15.036 9.81333 15.196 9.76C15.3667 9.696 15.532 9.616 15.692 9.52C15.852 9.424 16.0067 9.30133 16.156 9.152C16.3053 9.00267 16.4387 8.84267 16.556 8.672L16.924 6.912C16.892 6.624 16.8067 6.37333 16.668 6.16C16.54 5.94667 16.3747 5.776 16.172 5.648C15.9693 5.52 15.756 5.456 15.532 5.456C15.2333 5.456 14.9507 5.53067 14.684 5.68C14.4173 5.82933 14.1773 6.032 13.964 6.288C13.7613 6.544 13.596 6.83733 13.468 7.168C13.3507 7.488 13.292 7.824 13.292 8.176C13.292 8.496 13.3453 8.784 13.452 9.04C13.5693 9.28533 13.7347 9.48267 13.948 9.632C14.1613 9.77067 14.4173 9.84 14.716 9.84Z" fill="white"/>
<path d="M22.5381 6.064H21.5301L21.9461 4.128H22.9541L23.0981 3.44C23.2475 2.736 23.4928 2.128 23.8341 1.616C24.1861 1.104 24.6021 0.709333 25.0821 0.431999C25.5621 0.144 26.0901 0 26.6661 0C26.9968 0 27.3275 0.0426664 27.6581 0.127999C27.9995 0.213333 28.3408 0.335999 28.6821 0.495999L27.8021 2.416C27.6635 2.34133 27.4981 2.28267 27.3061 2.24C27.1141 2.18667 26.9381 2.16 26.7781 2.16C26.5008 2.16 26.2661 2.26133 26.0741 2.464C25.8928 2.656 25.7595 2.94933 25.6741 3.344L25.4981 4.128H27.3381L26.9221 6.064H25.0981L23.1461 15.248H20.5861L22.5381 6.064Z" fill="white"/>
<path d="M31.1309 12C30.4055 12 29.7762 11.8507 29.2429 11.552C28.7202 11.2533 28.3149 10.8373 28.0269 10.304C27.7495 9.76 27.6109 9.14133 27.6109 8.448C27.6109 7.73333 27.7495 7.06667 28.0269 6.448C28.3042 5.82933 28.6882 5.28533 29.1789 4.816C29.6695 4.336 30.2402 3.96267 30.8909 3.696C31.5522 3.41867 32.2615 3.28 33.0189 3.28C33.6589 3.28 34.2082 3.376 34.6669 3.568C35.1362 3.74933 35.4935 4.02133 35.7389 4.384C35.9949 4.736 36.1229 5.168 36.1229 5.68C36.1229 6.58667 35.7015 7.28 34.8589 7.76C34.0269 8.22933 32.7842 8.464 31.1309 8.464C30.8109 8.464 30.4589 8.45867 30.0749 8.448C29.7015 8.42667 29.3122 8.39467 28.9069 8.352L29.2269 6.784C29.5682 6.816 29.8935 6.84267 30.2029 6.864C30.5122 6.87467 30.8215 6.88 31.1309 6.88C31.7602 6.88 32.2562 6.848 32.6189 6.784C32.9922 6.70933 33.2589 6.59733 33.4189 6.448C33.5789 6.29867 33.6589 6.11733 33.6589 5.904C33.6589 5.73333 33.6109 5.59467 33.5149 5.488C33.4295 5.37067 33.3069 5.28 33.1469 5.216C32.9975 5.152 32.8162 5.12 32.6029 5.12C32.2509 5.12 31.9255 5.21067 31.6269 5.392C31.3282 5.57333 31.0669 5.824 30.8429 6.144C30.6295 6.464 30.4589 6.832 30.3309 7.248C30.2135 7.65333 30.1549 8.09067 30.1549 8.56C30.1549 8.89067 30.2029 9.17867 30.2989 9.424C30.3949 9.65867 30.5495 9.84 30.7629 9.968C30.9869 10.096 31.2642 10.16 31.5949 10.16C31.9789 10.16 32.3309 10.0693 32.6509 9.888C32.9815 9.70667 33.2482 9.456 33.4509 9.136L35.4669 9.776C35.1789 10.2133 34.8002 10.6027 34.3309 10.944C33.8615 11.2747 33.3495 11.536 32.7949 11.728C32.2509 11.9093 31.6962 12 31.1309 12Z" fill="white"/>
<path d="M41.6206 11.936C40.938 11.936 40.33 11.8027 39.7966 11.536C39.2633 11.2694 38.8153 10.9067 38.4526 10.448C38.09 9.98935 37.8126 9.47202 37.6206 8.89602C37.4393 8.32002 37.3486 7.72802 37.3486 7.12002C37.3486 6.48002 37.4553 5.84535 37.6686 5.21602C37.882 4.57602 38.186 3.96802 38.5806 3.39202C38.986 2.81602 39.4606 2.30402 40.0046 1.85602C40.5593 1.40802 41.178 1.05602 41.8606 0.800015C42.554 0.544016 43.29 0.416016 44.0686 0.416016C45.114 0.416016 45.9673 0.645349 46.6286 1.10402C47.29 1.56268 47.722 2.16002 47.9246 2.89602L45.6366 4.28802C45.562 3.88268 45.4126 3.56802 45.1886 3.34402C44.9753 3.12002 44.7246 2.96535 44.4366 2.88002C44.1486 2.79468 43.8553 2.75202 43.5566 2.75202C42.97 2.75202 42.458 2.88002 42.0206 3.13602C41.5833 3.39202 41.2153 3.73335 40.9166 4.16002C40.618 4.57602 40.394 5.02935 40.2446 5.52002C40.0953 6.00002 40.0206 6.46402 40.0206 6.91202C40.0206 7.40268 40.1006 7.85068 40.2606 8.25602C40.4206 8.66135 40.6606 8.98668 40.9806 9.23202C41.3006 9.47735 41.6953 9.60002 42.1646 9.60002C42.4526 9.60002 42.762 9.54668 43.0926 9.44002C43.4233 9.33335 43.738 9.16802 44.0366 8.94402C44.3353 8.70935 44.5913 8.40535 44.8046 8.03202L46.6926 9.29602C46.3513 9.86135 45.8926 10.3413 45.3166 10.736C44.7513 11.1307 44.1433 11.4293 43.4926 11.632C42.842 11.8347 42.218 11.936 41.6206 11.936Z" fill="#1C68FF"/>
<path d="M51.0308 12C50.4121 12 49.8788 11.856 49.4308 11.568C48.9934 11.2693 48.6521 10.864 48.4068 10.352C48.1721 9.82935 48.0548 9.24268 48.0548 8.59202C48.0548 7.87735 48.1774 7.20002 48.4228 6.56002C48.6681 5.92002 49.0041 5.36002 49.4308 4.88002C49.8574 4.38935 50.3428 4.00002 50.8868 3.71202C51.4414 3.42402 52.0228 3.28002 52.6308 3.28002C53.1748 3.28002 53.6388 3.42402 54.0228 3.71202C54.4174 3.98935 54.6841 4.35735 54.8228 4.81602L55.1108 3.48802H57.6868L56.5028 8.96002C56.4921 9.02402 56.4814 9.08268 56.4708 9.13602C56.4708 9.18935 56.4708 9.24268 56.4708 9.29602C56.4708 9.54135 56.6041 9.66935 56.8708 9.68002L56.4228 11.84C56.1881 11.8827 55.9801 11.9147 55.7988 11.936C55.6174 11.9573 55.4628 11.968 55.3348 11.968C54.9188 11.968 54.5881 11.888 54.3428 11.728C54.0974 11.5573 53.9748 11.28 53.9748 10.896C53.9748 10.8533 53.9748 10.8107 53.9748 10.768C53.9748 10.7253 53.9801 10.6774 53.9908 10.624C54.0014 10.5707 54.0121 10.512 54.0228 10.448C53.6281 10.9707 53.1641 11.36 52.6308 11.616C52.1081 11.872 51.5748 12 51.0308 12ZM52.1828 9.84002C52.3428 9.84002 52.5028 9.81335 52.6628 9.76002C52.8334 9.69602 52.9988 9.61602 53.1588 9.52002C53.3188 9.42402 53.4734 9.30135 53.6228 9.15202C53.7721 9.00268 53.9054 8.84268 54.0228 8.67202L54.3908 6.91202C54.3588 6.62402 54.2734 6.37335 54.1348 6.16002C54.0068 5.94668 53.8414 5.77602 53.6388 5.64802C53.4361 5.52002 53.2228 5.45602 52.9988 5.45602C52.7001 5.45602 52.4174 5.53068 52.1508 5.68002C51.8841 5.82935 51.6441 6.03202 51.4308 6.28802C51.2281 6.54402 51.0628 6.83735 50.9348 7.16802C50.8174 7.48802 50.7588 7.82402 50.7588 8.17602C50.7588 8.49602 50.8121 8.78402 50.9188 9.04002C51.0361 9.28535 51.2014 9.48268 51.4148 9.63202C51.6281 9.77068 51.8841 9.84002 52.1828 9.84002Z" fill="#1C68FF"/>
<path d="M60.1314 3.44002H62.4834L62.1154 5.13602C62.5207 4.57068 62.9687 4.12802 63.4594 3.80802C63.9607 3.48802 64.4514 3.32802 64.9314 3.32802C65.0487 3.32802 65.1287 3.32802 65.1714 3.32802C65.2247 3.32802 65.2674 3.33335 65.2994 3.34402L64.8194 5.63202C64.2434 5.63202 63.6994 5.73335 63.1874 5.93602C62.6754 6.12802 62.2701 6.41602 61.9714 6.80002L60.8994 11.84H58.3394L60.1314 3.44002Z" fill="#1C68FF"/>
</svg>
