<svg width="74" height="24" fill="none" xmlns="http://www.w3.org/2000/svg"><g filter="url(#filter0_d)"><path d="M8.336 11.968c-.79 0-1.573-.123-2.352-.368-.779-.256-1.44-.603-1.984-1.04l1.632-2.288c.032.053.133.155.304.304.181.139.421.288.72.448.31.15.65.283 1.024.4.384.117.784.176 1.2.176.341 0 .613-.043.816-.128.213-.085.363-.203.448-.352.096-.16.144-.336.144-.528A.69.69 0 009.968 8a3.058 3.058 0 00-.816-.4c-.33-.117-.704-.245-1.12-.384a6.076 6.076 0 01-1.264-.608A2.333 2.333 0 016 5.824a2.226 2.226 0 01-.256-1.088c0-.693.133-1.307.4-1.84a4.057 4.057 0 011.104-1.36c.47-.373.992-.656 1.568-.848a5.5 5.5 0 011.808-.304c.512 0 .992.064 1.44.192.459.128.875.288 1.248.48s.699.384.976.576l-1.6 2.176c-.01-.053-.096-.133-.256-.24a3.621 3.621 0 00-.608-.368 5.006 5.006 0 00-.832-.336 3.167 3.167 0 00-.944-.144 1.86 1.86 0 00-.768.144 1.062 1.062 0 00-.496.384 1.04 1.04 0 00-.16.592c0 .203.075.373.224.512.16.128.384.245.672.352.288.096.624.213 1.008.352.544.17 1.019.373 1.424.608.405.224.72.507.944.848.235.33.352.763.352 1.296 0 .757-.144 1.403-.432 1.936a3.718 3.718 0 01-1.136 1.296c-.47.32-.997.555-1.584.704a6.986 6.986 0 01-1.76.224zm9.228.032c-.619 0-1.152-.144-1.6-.432a3.016 3.016 0 01-1.024-1.216c-.235-.523-.352-1.11-.352-1.76 0-.715.123-1.392.368-2.032a5.41 5.41 0 011.008-1.68 5.06 5.06 0 011.456-1.168 3.735 3.735 0 011.744-.432c.544 0 1.008.144 1.392.432.395.277.661.645.8 1.104l.288-1.328h2.576L23.036 8.96c-.01.064-.021.123-.032.176v.16c0 .245.133.373.4.384l-.448 2.16a9.776 9.776 0 01-.624.096 4.073 4.073 0 01-.464.032c-.416 0-.747-.08-.992-.24-.245-.17-.368-.448-.368-.832v-.128c0-.043.005-.09.016-.144l.032-.176a3.806 3.806 0 01-1.392 1.168 3.601 3.601 0 01-1.6.384zm1.152-2.16c.16 0 .32-.027.48-.08a3.03 3.03 0 00.496-.24 2.42 2.42 0 00.464-.368c.15-.15.283-.31.4-.48l.368-1.76a1.703 1.703 0 00-.256-.752 1.52 1.52 0 00-.496-.512 1.18 1.18 0 00-.64-.192 1.71 1.71 0 00-.848.224c-.267.15-.507.352-.72.608a3.36 3.36 0 00-.496.88c-.117.32-.176.656-.176 1.008 0 .32.053.608.16.864.117.245.283.443.496.592.213.139.47.208.768.208zm7.822-3.776H25.53l.416-1.936h1.008l.144-.688c.15-.704.395-1.312.736-1.824A3.864 3.864 0 0129.082.432 3.021 3.021 0 0130.666 0c.33 0 .662.043.992.128.341.085.683.208 1.024.368l-.88 1.92a1.926 1.926 0 00-.496-.176 1.986 1.986 0 00-.528-.08.933.933 0 00-.704.304c-.181.192-.315.485-.4.88l-.176.784h1.84l-.416 1.936h-1.824l-1.952 9.184h-2.56l1.952-9.184zM35.13 12c-.724 0-1.354-.15-1.887-.448a3.112 3.112 0 01-1.216-1.248c-.277-.544-.416-1.163-.416-1.856 0-.715.139-1.381.416-2a5.156 5.156 0 011.152-1.632 5.291 5.291 0 011.712-1.12 5.446 5.446 0 012.128-.416c.64 0 1.19.096 1.648.288.47.181.826.453 1.072.816.256.352.384.784.384 1.296 0 .907-.421 1.6-1.264 2.08-.832.47-2.075.704-3.728.704-.32 0-.672-.005-1.056-.016a24.533 24.533 0 01-1.168-.096l.32-1.568c.341.032.667.059.976.08.31.01.618.016.928.016.63 0 1.125-.032 1.488-.096.373-.075.64-.187.8-.336.16-.15.24-.33.24-.544 0-.17-.048-.31-.144-.416a.815.815 0 00-.368-.272 1.38 1.38 0 00-.544-.096c-.352 0-.678.09-.976.272a2.61 2.61 0 00-.784.752c-.214.32-.384.688-.512 1.104a4.698 4.698 0 00-.176 1.312c0 .33.048.619.144.864a1.1 1.1 0 00.464.544c.224.128.501.192.832.192.384 0 .736-.09 1.056-.272a2.17 2.17 0 00.8-.752l2.016.64a4.528 4.528 0 01-1.136 1.168 6.14 6.14 0 01-1.536.784A5.23 5.23 0 0135.13 12z" fill="#031230"/><path d="M45.62 11.936c-.682 0-1.29-.133-1.823-.4a3.931 3.931 0 01-1.344-1.088 5.06 5.06 0 01-.832-1.552 5.88 5.88 0 01.048-3.68c.213-.64.517-1.248.912-1.824a7.787 7.787 0 011.424-1.536A6.648 6.648 0 0145.86.8a6.324 6.324 0 012.208-.384c1.045 0 1.898.23 2.56.688.661.459 1.093 1.056 1.296 1.792l-2.288 1.392c-.075-.405-.224-.72-.448-.944a1.685 1.685 0 00-.752-.464 3.081 3.081 0 00-.88-.128c-.587 0-1.099.128-1.536.384a3.486 3.486 0 00-1.104 1.024c-.299.416-.523.87-.672 1.36-.15.48-.224.944-.224 1.392 0 .49.08.939.24 1.344.16.405.4.73.72.976.32.245.714.368 1.184.368a3.233 3.233 0 001.872-.656 3.09 3.09 0 00.768-.912l1.888 1.264a4.651 4.651 0 01-1.376 1.44 6.595 6.595 0 01-1.824.896 6.288 6.288 0 01-1.872.304zm9.41.064c-.618 0-1.151-.144-1.6-.432a3.015 3.015 0 01-1.023-1.216c-.235-.523-.352-1.11-.352-1.76a5.612 5.612 0 011.376-3.712c.426-.49.912-.88 1.456-1.168a3.735 3.735 0 011.744-.432c.544 0 1.008.144 1.392.432.394.277.661.645.8 1.104l.288-1.328h2.576L60.503 8.96c-.01.064-.022.123-.032.176v.16c0 .245.133.373.4.384l-.448 2.16a9.776 9.776 0 01-.624.096 4.074 4.074 0 01-.464.032c-.416 0-.747-.08-.992-.24-.246-.17-.368-.448-.368-.832v-.128a.74.74 0 01.016-.144l.032-.176a3.806 3.806 0 01-1.392 1.168 3.601 3.601 0 01-1.6.384zm1.153-2.16c.16 0 .32-.027.48-.08.17-.064.336-.144.496-.24.16-.096.314-.219.464-.368.15-.15.282-.31.4-.48l.368-1.76a1.705 1.705 0 00-.256-.752 1.52 1.52 0 00-.496-.512 1.18 1.18 0 00-.64-.192 1.71 1.71 0 00-.848.224c-.267.15-.507.352-.72.608a3.36 3.36 0 00-.496.88 2.89 2.89 0 00-.176 1.008c0 .32.053.608.16.864.117.245.282.443.496.592.213.139.47.208.768.208zm7.948-6.4h2.352l-.368 1.696c.406-.565.854-1.008 1.344-1.328.502-.32.992-.48 1.472-.48h.24c.054 0 .096.005.128.016l-.48 2.288c-.576 0-1.12.101-1.632.304-.512.192-.917.48-1.216.864L64.9 11.84h-2.56l1.792-8.4z" fill="#014AD8"/></g><defs><filter id="filter0_d" x="0" y="0" width="73.299" height="23.248" filterUnits="userSpaceOnUse" color-interpolation-filters="sRGB"><feFlood flood-opacity="0" result="BackgroundImageFix"/><feColorMatrix in="SourceAlpha" values="0 0 0 0 0 0 0 0 0 0 0 0 0 0 0 0 0 0 127 0" result="hardAlpha"/><feOffset dy="4"/><feGaussianBlur stdDeviation="2"/><feComposite in2="hardAlpha" operator="out"/><feColorMatrix values="0 0 0 0 0 0 0 0 0 0 0 0 0 0 0 0 0 0 0.25 0"/><feBlend in2="BackgroundImageFix" result="effect1_dropShadow"/><feBlend in="SourceGraphic" in2="effect1_dropShadow" result="shape"/></filter></defs></svg>