<svg width="33" height="33" viewBox="0 0 33 33" fill="none" xmlns="http://www.w3.org/2000/svg">
<g filter="url(#filter0_b)">
<rect x="0.0756836" y="0.725342" width="32" height="32" rx="16" fill="white" fill-opacity="0.2"/>
</g>
<path d="M21.1946 15.5679C21.2119 13.5373 19.4824 11.6757 17.3392 11.4183C17.2966 11.4132 17.2502 11.4055 17.201 11.3974C17.0949 11.3798 16.9852 11.3618 16.8745 11.3618C16.4353 11.3618 16.3179 11.6703 16.2869 11.8543C16.2569 12.0332 16.2856 12.1835 16.372 12.3011C16.5175 12.4989 16.7734 12.534 16.979 12.5621C17.0392 12.5704 17.0961 12.5782 17.1437 12.5889C19.0692 13.0191 19.7175 13.6956 20.0344 15.6047C20.0422 15.6513 20.0456 15.7088 20.0494 15.7698C20.0632 15.998 20.092 16.4728 20.6024 16.4728H20.6025C20.645 16.4728 20.6906 16.4691 20.7382 16.4619C21.2135 16.3896 21.1986 15.9556 21.1915 15.7471C21.1895 15.6884 21.1875 15.6328 21.1925 15.5959C21.1938 15.5866 21.1945 15.5772 21.1946 15.5679Z" fill="white"/>
<path d="M16.7502 10.6729C16.8073 10.677 16.8613 10.681 16.9062 10.6879C20.0681 11.1741 21.5222 12.6722 21.9252 15.8588C21.932 15.913 21.9331 15.979 21.9342 16.049C21.9382 16.298 21.9465 16.8159 22.5027 16.8266L22.52 16.8268C22.6944 16.8268 22.8332 16.7742 22.9324 16.6703C23.1056 16.4892 23.0935 16.2202 23.0837 16.004C23.0814 15.9509 23.0791 15.9009 23.0797 15.8572C23.1199 12.5981 20.2988 9.64282 17.0426 9.53292C17.0291 9.53247 17.0162 9.53318 17.0032 9.53502C16.9968 9.53596 16.985 9.53712 16.9647 9.53712C16.9322 9.53712 16.8923 9.5343 16.8499 9.53144C16.7987 9.52795 16.7406 9.52393 16.6818 9.52393C16.1632 9.52393 16.0646 9.8925 16.052 10.1122C16.0229 10.62 16.5142 10.6557 16.7502 10.6729Z" fill="white"/>
<path d="M21.7724 19.9782C21.7052 19.9269 21.6357 19.8737 21.5706 19.8213C21.2254 19.5435 20.8581 19.2874 20.5029 19.0397C20.4292 18.9884 20.3555 18.937 20.2821 18.8855C19.8271 18.5659 19.418 18.4106 19.0316 18.4106C18.511 18.4106 18.0572 18.6982 17.6826 19.2653C17.5167 19.5167 17.3154 19.639 17.0673 19.639C16.9206 19.639 16.7538 19.5971 16.5718 19.5145C15.1032 18.8485 14.0546 17.8274 13.4549 16.4796C13.165 15.8282 13.259 15.4024 13.7691 15.0558C14.0589 14.8592 14.5981 14.4931 14.5599 13.7921C14.5167 12.9961 12.7602 10.6008 12.0202 10.3288C11.7069 10.2136 11.3776 10.2125 11.0399 10.3261C10.1892 10.6121 9.57868 11.1144 9.27425 11.7785C8.98007 12.4203 8.99335 13.1738 9.31267 13.9576C10.2358 16.2239 11.5337 18.1997 13.1704 19.8302C14.7724 21.4264 16.7414 22.7338 19.0227 23.7161C19.2283 23.8046 19.444 23.8528 19.6015 23.8881C19.6552 23.9001 19.7015 23.9104 19.7353 23.9197C19.7538 23.9247 19.773 23.9275 19.7922 23.9276L19.8102 23.9277C19.8102 23.9277 19.8102 23.9277 19.8103 23.9277C20.8833 23.9277 22.1716 22.9473 22.5673 21.8295C22.9139 20.8507 22.281 20.3669 21.7724 19.9782Z" fill="white"/>
<path d="M17.2246 13.2617C17.0409 13.2663 16.6586 13.2758 16.5245 13.6652C16.4617 13.8471 16.4692 14.0051 16.5468 14.1348C16.6607 14.3249 16.8789 14.3832 17.0774 14.4152C17.7971 14.5307 18.1668 14.9287 18.2407 15.6676C18.275 16.0122 18.5071 16.2528 18.805 16.2528H18.805C18.827 16.2528 18.8495 16.2515 18.8719 16.2488C19.2302 16.2061 19.4039 15.9429 19.3882 15.4664C19.3939 14.9692 19.1337 14.4047 18.6911 13.955C18.247 13.5039 17.7116 13.2499 17.2246 13.2617Z" fill="white"/>
<defs>
<filter id="filter0_b" x="-123.924" y="-123.275" width="280" height="280" filterUnits="userSpaceOnUse" color-interpolation-filters="sRGB">
<feFlood flood-opacity="0" result="BackgroundImageFix"/>
<feGaussianBlur in="BackgroundImage" stdDeviation="62"/>
<feComposite in2="SourceAlpha" operator="in" result="effect1_backgroundBlur"/>
<feBlend mode="normal" in="SourceGraphic" in2="effect1_backgroundBlur" result="shape"/>
</filter>
</defs>
</svg>
