<svg width="33" height="33" viewBox="0 0 33 33" fill="none" xmlns="http://www.w3.org/2000/svg">
<g filter="url(#filter0_b)">
<rect x="0.0756836" y="0.465454" width="32" height="32" rx="16" fill="white" fill-opacity="0.2"/>
</g>
<path fill-rule="evenodd" clip-rule="evenodd" d="M22.4202 9.87103C20.7368 8.1857 18.4981 7.25715 16.1131 7.25616C11.1986 7.25616 7.19884 11.2558 7.19686 16.1716C7.1962 17.7431 7.60671 19.2771 8.387 20.6292L7.12207 25.2494L11.8487 24.0095C13.1511 24.7199 14.6173 25.0943 16.1095 25.0948H16.1132C21.0272 25.0948 25.0273 21.0948 25.0292 16.1788C25.0302 13.7963 24.1036 11.5562 22.4202 9.87103ZM16.1131 23.589H16.11C14.7803 23.5885 13.4762 23.2311 12.3382 22.556L12.0677 22.3953L9.26283 23.1312L10.0115 20.3965L9.83522 20.1161C9.09338 18.9362 8.70164 17.5724 8.7023 16.1722C8.70384 12.0862 12.0284 8.76204 16.1161 8.76204C18.0955 8.7627 19.9562 9.53453 21.3553 10.9353C22.7545 12.3361 23.5245 14.198 23.5239 16.1782C23.5221 20.2645 20.1978 23.589 16.1131 23.589ZM20.178 18.0387C19.9553 17.9271 18.86 17.3883 18.6557 17.3139C18.4516 17.2395 18.3029 17.2025 18.1546 17.4255C18.006 17.6484 17.5791 18.1503 17.4491 18.2989C17.319 18.4476 17.1892 18.4662 16.9664 18.3547C16.7436 18.2432 16.0258 18.0078 15.1748 17.2489C14.5125 16.6581 14.0655 15.9286 13.9354 15.7057C13.8056 15.4825 13.9343 15.3735 14.0332 15.251C14.2743 14.9515 14.5158 14.6375 14.5901 14.4889C14.6644 14.3402 14.6272 14.2101 14.5714 14.0986C14.5158 13.9872 14.0703 12.8906 13.8847 12.4444C13.7037 12.0101 13.5202 12.0688 13.3834 12.062C13.2535 12.0555 13.105 12.0542 12.9564 12.0542C12.8079 12.0542 12.5665 12.1099 12.3622 12.333C12.1581 12.5561 11.5826 13.095 11.5826 14.1915C11.5826 15.2881 12.3809 16.3475 12.4923 16.4961C12.6036 16.6448 14.0633 18.8951 16.298 19.86C16.8296 20.0897 17.2445 20.2267 17.5681 20.3294C18.1019 20.4989 18.5874 20.475 18.9713 20.4177C19.3994 20.3536 20.2893 19.8787 20.4751 19.3583C20.6607 18.8379 20.6607 18.3919 20.6049 18.2989C20.5493 18.206 20.4008 18.1503 20.178 18.0387Z" fill="white"/>
<defs>
<filter id="filter0_b" x="-123.924" y="-123.535" width="280" height="280" filterUnits="userSpaceOnUse" color-interpolation-filters="sRGB">
<feFlood flood-opacity="0" result="BackgroundImageFix"/>
<feGaussianBlur in="BackgroundImage" stdDeviation="62"/>
<feComposite in2="SourceAlpha" operator="in" result="effect1_backgroundBlur"/>
<feBlend mode="normal" in="SourceGraphic" in2="effect1_backgroundBlur" result="shape"/>
</filter>
</defs>
</svg>
